<svg width="32" height="32" viewBox="0 0 32 32" xmlns="http://www.w3.org/2000/svg"><g fill="none" fill-rule="evenodd"><path d="M32 27.7v-.4l-.1-.6v-2.6l-.1-.5v-2.1l.1-.4V12.8l-.1-.7V11l.1-.2a13.8 13.8 0 0 1 0-.7V7.4a2 2 0 0 0-.3-1l-.2-.2-.8-.1h-1l-.5.1H27.8l-.8-.1h-4.6l-.5.1h-3.2L19 6l.1-.1.2-.3.3-.2h.1l.5-.4.3-.3.4-.3.2-.3.3-.3.4-.4.3-.3.4-.4.2-.2.4-.3.3-.4.1-.2.2-.2.2-.2.1-.2V.6c0-.2-.1-.4-.3-.4a1 1 0 0 0-.7-.1c-.1 0-.2 0-.3.2l-.2.2h-.1l-.1.2-.4.2-.2.3-.2.2-.2.2-.2.3-.4.2-.2.3-.3.3-.3.3-.4.4-.2.1a2 2 0 0 0-.3.2l-.3.3-.4.3-.3.3h-.1l-.3.3-.2.2-.2.2-.5.5a2 2 0 0 0-.4.3l-.2.1H16l-.2-.1-.3-.3-.3-.2-.2-.2-.3-.3-.3-.2-.6-.4-.2-.2-.4-.4-.2-.1c0-.2-.2-.3-.3-.4l-.2-.2-.4-.4-.3-.2-.3-.3-.4-.4-.2-.2-.4-.3v-.1l-.2-.2-.4-.3-.4-.3-.1-.1-.1-.1L9 .2h-.7L8 .4v.7l.1.2.3.3.3.2.5.5.3.3.1.1.2.3.2.1.2.2v.1l.3.2.2.2.4.3.3.2.2.2.2.2.3.3h.1l.3.3.2.4.4.4.1.1h-.4l-.7.1H9a2 2 0 0 0-.6-.1H7a3 3 0 0 1-.3 0H2.2l-.5.1H1a1 1 0 0 0-.6.3L0 7v7.9l-.1.5.1.9V28l.1.3c0 .2.2.4.4.5h.2c.1.2.3.2.5.2H6v.1l.4.7.4.4.2.5.2.3.2.1.4.3.1.2.3.1.6.2h.5l.4-.1c.3 0 .5-.2.6-.4l.4-.4h.1l.2-.3.2-.4.2-.2.5-.8V29h3.9l.3-.1.8.1H19c.2 0 .5-.1.8 0l.3-.1c0 .2.1.4.3.5a4 4 0 0 1 .6.8l.3.4.2.2.3.3.2.2c.1.2.3.3.6.3l.5.2h.1l.8-.1.4-.2.3-.2v-.1l.4-.6.1-.2.5-.5.1-.2.1-.4.3-.3h3.3s.1-.1.2 0l.4-.1h1s.2 0 .3-.2l.2-.2.2-.2.2-.5v-.2" fill="#231916" mask="url(#mask-2)"/><path d="m9.5 30.5.5-.5.2-.3.2-.3.2-.2a3 3 0 0 0-.3 0H10a2 2 0 0 0-.6 0H7.7c0-.1-.1-.1-.2 0l.2.2.2.4v.1l.4.4c.3.4.3.3.6.4.2 0 .4 0 .6-.2M24.9 29l-.1.1H21.7l.3.6.6.7.2.1c.2.2.5.2.8 0l.2-.1.1-.1.3-.2.3-.5.3-.4V29m.7-14.3v.2l-.2.4v.1h-.1v.1H25l-.3.3h-.5l-.2.1h-.8l-.2-.3h-.1v-.1l-.2-.2v-.1l-.1-.1v-.2l-.1-.2v-1l.2-.2v-.1l.2-.1.3-.2V13h.2l.1-.1h1v.1c.2 0 .4.2.5.3l.3.3.1.2v.2l.1.3v.3m-7.1 8.7-.2.4h-4.4l-.2-.2V23l.3-.3.2-.3.3-.2.2-.3.4-.4.4-.3.2-.3h.3l.5.1.6.6.2.3a5.9 5.9 0 0 1 .4.4l.2.2.4.3.2.3v.2m-9-5.6v.4h-.1v.1l-.1.2-.2.3a1.8 1.8 0 0 1-.5.3h-1l-.2-.1c-.2 0-.3-.2-.5-.3l-.4-.8v-.7l.1-.2c0-.2.1-.3.2-.3v-.1h.1v-.1H7l.3-.2.2-.1h.1L8 16h.4l.2.1a2.4 2.4 0 0 1 .5.3l.2.3v.1l.2.3v.6m19.1 5.2v-1.5a8.3 8.3 0 0 0 0-1.7v-.5a4.3 4.3 0 0 0 .1-1.1v-4.2l-.1-.5v-2.5c0-.3 0-.6-.2-.8l-.4-.3a3 3 0 0 0-.5 0l-.6-.1h-5.7a2 2 0 0 1-.5 0H17.4a2.9 2.9 0 0 1-1 0h-6.2c-.2-.1-.3-.1-.4 0h-.3s-.1-.1-.1 0H8c0-.1-.2-.1-.2 0H5a2 2 0 0 0-.7 0l-.4.2-.3.2-.2.6v2.4l-.1.6v10.4l.1.8v.4l.8.5h10.5c0 .1 0 0 .1 0h13l.4-.2v-.1c.2 0 .2-.2.3-.3l.1-.4v-2" fill="#FEFEFE"/><path d="m29.5 24.7-.1.7v.9c0 .2-.2.2-.3.3h-1.2a2.4 2.4 0 0 1-1 0H26.3l-.3-.1a4 4 0 0 0-.8 0h-4.6c-.1.1-.3.1-.4 0h-2.5l-.3.1a2 2 0 0 1-.8 0h-3.4l-.7-.1h-.4a5 5 0 0 0-.7 0h-.5l-1.3.1h-.3c-.2-.1-.5-.1-.8 0h-.4l-.6-.1H6.3l-.4.1H3a.4.4 0 0 1-.3-.5V18l-.1-1.3V10.6l.1-.5v-.7c0-.2.2-.3.4-.3h4.1a4 4 0 0 1 1 0h5.6l.5-.1H20a4.4 4.4 0 0 0 1.1 0h1.3l.8.1H28l.8-.1h.4c.2.1.2.2.2.4v1.8l.1.8v12.7m1.2-.8v-1l.1-.6V8l-.2-.3a.6.6 0 0 0-.4-.1h-.7l-.9-.1h-.2l-.6-.1h-1.2a2.2 2.2 0 0 1-.6.1h-1c-.1 0-.3.1-.4 0h-2.2a2 2 0 0 0-.4 0h-1.1a1 1 0 0 1-.4 0h-2.6a1 1 0 0 1-.3 0h-.3l-.5-.1h-.5a3 3 0 0 0-.6 0l-.5.1H12l-.3-.1H9c-.2.1-.4.2-.6.1h-.7a1 1 0 0 1-.4 0h-4a1 1 0 0 0-.4 0h-.5a1 1 0 0 1-.3 0h-.4c-.2.1-.3.3-.3.5v2l-.1.6v6.1l-.1.6v1.4l.1.5v7l-.1.3v.3l.1.5v.4l.4.2a2.1 2.1 0 0 0 1 0l.4.1h1l.4.1h2.9l.5-.1H9l.3.1h7.5c0 .1.2 0 .2 0h4.7c0-.1 0 0 0 0h4.8l.4-.2h.4l.2.2H30l.5-.2h.1l.2-.5V24" fill="#FEFEFE"/></g></svg>